<?xml version="1.0" encoding="UTF-8" standalone="no"?>
<!DOCTYPE svg PUBLIC "-//W3C//DTD SVG 1.1//EN"
 "http://www.w3.org/Graphics/SVG/1.1/DTD/svg11.dtd">
<!-- Generated by graphviz version 2.40.1 (20161225.0304)
 -->
<!-- Title: %3 Pages: 1 -->
<svg width="400pt" height="116pt"
 viewBox="0.00 0.00 400.18 116.00" xmlns="http://www.w3.org/2000/svg" xmlns:xlink="http://www.w3.org/1999/xlink">
<g id="graph0" class="graph" transform="scale(1 1) rotate(0) translate(4 112)">
<title>%3</title>
<polygon fill="#ffffff" stroke="transparent" points="-4,4 -4,-112 396.1834,-112 396.1834,4 -4,4"/>
<!-- A -->
<g id="node1" class="node">
<title>A</title>
<ellipse fill="none" stroke="#000000" cx="194.9418" cy="-90" rx="56.59" ry="18"/>
<text text-anchor="middle" x="194.9418" y="-86.3" font-family="Times,serif" font-size="14.00" fill="#000000">King Arthur</text>
</g>
<!-- B -->
<g id="node2" class="node">
<title>B</title>
<ellipse fill="none" stroke="#000000" cx="92.9418" cy="-18" rx="92.8835" ry="18"/>
<text text-anchor="middle" x="92.9418" y="-14.3" font-family="Times,serif" font-size="14.00" fill="#000000">Sir Bedevere the Wise</text>
</g>
<!-- A&#45;&gt;B -->
<g id="edge1" class="edge">
<title>A&#45;&gt;B</title>
<path fill="none" stroke="#000000" d="M171.5409,-73.4817C158.0692,-63.9723 140.9209,-51.8677 126.0816,-41.3928"/>
<polygon fill="#000000" stroke="#000000" points="127.8446,-38.3532 117.6565,-35.4457 123.8078,-44.072 127.8446,-38.3532"/>
</g>
<!-- L -->
<g id="node3" class="node">
<title>L</title>
<ellipse fill="none" stroke="#000000" cx="297.9418" cy="-18" rx="94.4839" ry="18"/>
<text text-anchor="middle" x="297.9418" y="-14.3" font-family="Times,serif" font-size="14.00" fill="#000000">Sir Lancelot the Brave</text>
</g>
<!-- A&#45;&gt;L -->
<g id="edge2" class="edge">
<title>A&#45;&gt;L</title>
<path fill="none" stroke="#000000" d="M218.572,-73.4817C232.1758,-63.9723 249.4922,-51.8677 264.477,-41.3928"/>
<polygon fill="#000000" stroke="#000000" points="266.7939,-44.0436 272.9847,-35.4457 262.7834,-38.3064 266.7939,-44.0436"/>
</g>
<!-- B&#45;&gt;L -->
<g id="edge3" class="edge">
<title>B&#45;&gt;L</title>
<path fill="none" stroke="#000000" d="M186.2328,-18C188.6873,-18 191.1419,-18 193.5964,-18"/>
<polygon fill="#000000" stroke="#000000" points="193.6873,-21.5001 203.6873,-18 193.6873,-14.5001 193.6873,-21.5001"/>
</g>
</g>
</svg>
