<?xml version="1.0" encoding="UTF-8" standalone="no"?>
<!DOCTYPE svg PUBLIC "-//W3C//DTD SVG 1.1//EN"
 "http://www.w3.org/Graphics/SVG/1.1/DTD/svg11.dtd">
<!-- Generated by graphviz version 2.40.1 (20161225.0304)
 -->
<!-- Title: %3 Pages: 1 -->
<svg width="406pt" height="116pt"
 viewBox="0.00 0.00 405.78 116.00" xmlns="http://www.w3.org/2000/svg" xmlns:xlink="http://www.w3.org/1999/xlink">
<g id="graph0" class="graph" transform="scale(1 1) rotate(0) translate(4 112)">
<title>%3</title>
<polygon fill="#ffffff" stroke="transparent" points="-4,4 -4,-112 401.7832,-112 401.7832,4 -4,4"/>
<!-- A -->
<g id="node1" class="node">
<title>A</title>
<ellipse fill="none" stroke="#000000" cx="196.9418" cy="-90" rx="56.59" ry="18"/>
<text text-anchor="middle" x="196.9418" y="-86.3" font-family="Times,serif" font-size="14.00" fill="#000000">King Arthur</text>
</g>
<!-- B -->
<g id="node2" class="node">
<title>B</title>
<ellipse fill="none" stroke="#000000" cx="92.9418" cy="-18" rx="92.8835" ry="18"/>
<text text-anchor="middle" x="92.9418" y="-14.3" font-family="Times,serif" font-size="14.00" fill="#000000">Sir Bedevere the Wise</text>
</g>
<!-- A&#45;&gt;B -->
<g id="edge1" class="edge">
<title>A&#45;&gt;B</title>
<path fill="none" stroke="#000000" d="M173.0821,-73.4817C159.3462,-63.9723 141.8617,-51.8677 126.7314,-41.3928"/>
<polygon fill="#000000" stroke="#000000" points="128.3553,-38.2602 118.1411,-35.4457 124.3708,-44.0155 128.3553,-38.2602"/>
</g>
<!-- L -->
<g id="node3" class="node">
<title>L</title>
<ellipse fill="none" stroke="#000000" cx="300.9418" cy="-18" rx="96.6831" ry="18"/>
<text text-anchor="middle" x="300.9418" y="-14.3" font-family="Times,serif" font-size="14.00" fill="#000000">Sir LAncelot the Brave</text>
</g>
<!-- A&#45;&gt;L -->
<g id="edge2" class="edge">
<title>A&#45;&gt;L</title>
<path fill="none" stroke="#000000" d="M220.8015,-73.4817C234.5373,-63.9723 252.0218,-51.8677 267.1521,-41.3928"/>
<polygon fill="#000000" stroke="#000000" points="269.5127,-44.0155 275.7424,-35.4457 265.5282,-38.2602 269.5127,-44.0155"/>
</g>
<!-- B&#45;&gt;L -->
<g id="edge3" class="edge">
<title>B&#45;&gt;L</title>
<path fill="none" stroke="#000000" d="M185.973,-18C188.5927,-18 191.2125,-18 193.8322,-18"/>
<polygon fill="#000000" stroke="#000000" points="193.9369,-21.5001 203.9369,-18 193.9368,-14.5001 193.9369,-21.5001"/>
</g>
</g>
</svg>
