<?xml version="1.0" encoding="UTF-8" standalone="no"?>
<!DOCTYPE svg PUBLIC "-//W3C//DTD SVG 1.1//EN"
 "http://www.w3.org/Graphics/SVG/1.1/DTD/svg11.dtd">
<!-- Generated by graphviz version 2.40.1 (20161225.0304)
 -->
<!-- Title: %3 Pages: 1 -->
<svg width="492pt" height="116pt"
 viewBox="0.00 0.00 491.68 116.00" xmlns="http://www.w3.org/2000/svg" xmlns:xlink="http://www.w3.org/1999/xlink">
<g id="graph0" class="graph" transform="scale(1 1) rotate(0) translate(4 112)">
<title>%3</title>
<polygon fill="#ffffff" stroke="transparent" points="-4,4 -4,-112 487.6794,-112 487.6794,4 -4,4"/>
<!-- A -->
<g id="node1" class="node">
<title>A</title>
<ellipse fill="none" stroke="#000000" cx="240.0398" cy="-90" rx="66.0889" ry="18"/>
<text text-anchor="middle" x="240.0398" y="-86.3" font-family="Times,serif" font-size="14.00" fill="#000000">King Arthur</text>
</g>
<!-- B -->
<g id="node2" class="node">
<title>B</title>
<ellipse fill="none" stroke="#000000" cx="115.0398" cy="-18" rx="115.0796" ry="18"/>
<text text-anchor="middle" x="115.0398" y="-14.3" font-family="Times,serif" font-size="14.00" fill="#000000">Sir Bedevere the Wise</text>
</g>
<!-- A&#45;&gt;B -->
<g id="edge1" class="edge">
<title>A&#45;&gt;B</title>
<path fill="none" stroke="#000000" d="M211.6754,-73.6621C194.7141,-63.8924 172.9147,-51.3359 154.3146,-40.6223"/>
<polygon fill="#000000" stroke="#000000" points="155.8881,-37.4896 145.4759,-35.5312 152.3942,-43.5553 155.8881,-37.4896"/>
</g>
<!-- L -->
<g id="node3" class="node">
<title>L</title>
<ellipse fill="none" stroke="#000000" cx="366.0398" cy="-18" rx="117.7793" ry="18"/>
<text text-anchor="middle" x="366.0398" y="-14.3" font-family="Times,serif" font-size="14.00" fill="#000000">Sir LAncelot the Brave</text>
</g>
<!-- A&#45;&gt;L -->
<g id="edge2" class="edge">
<title>A&#45;&gt;L</title>
<path fill="none" stroke="#000000" d="M268.6311,-73.6621C285.7281,-63.8924 307.7019,-51.3359 326.4508,-40.6223"/>
<polygon fill="#000000" stroke="#000000" points="328.4143,-43.5315 335.3602,-35.5312 324.9413,-37.4538 328.4143,-43.5315"/>
</g>
<!-- B&#45;&gt;L -->
<g id="edge3" class="edge">
<title>B&#45;&gt;L</title>
<path fill="none" stroke="#000000" d="M230.2449,-18C232.875,-18 235.5052,-18 238.1353,-18"/>
<polygon fill="#000000" stroke="#000000" points="238.2802,-21.5001 248.2801,-18 238.2801,-14.5001 238.2802,-21.5001"/>
</g>
</g>
</svg>
